<svg width="30" height="30" viewBox="0 0 30 30" fill="none" xmlns="http://www.w3.org/2000/svg">
<path d="M22.5 19.7969C18.5938 20.5391 14.9609 17.5312 14.9609 13.5469C14.9609 11.2422 16.1719 9.13281 18.1641 8C19.1797 7.41406 18.9453 5.89062 17.7734 5.69531C17.1875 5.57812 16.5625 5.53906 15.9375 5.5C10.4297 5.5 5.9375 9.99219 5.9375 15.5C5.9375 21.0469 10.4297 25.5 15.9375 25.5C19.0234 25.5 21.875 24.1328 23.7109 21.8281C24.4531 20.8906 23.6719 19.6016 22.5 19.7969ZM15.9375 24.25C11.1328 24.25 7.1875 20.3438 7.1875 15.5C7.1875 10.6953 11.1328 6.75 15.9375 6.75C16.4844 6.75 17.0312 6.82812 17.5391 6.90625C15.2344 8.23438 13.7109 10.6953 13.7109 13.5469C13.7109 18.3516 18.0469 21.9062 22.7344 21.0469C21.1328 23 18.7109 24.25 15.9375 24.25Z" fill="url(#paint0_diamond_7_429)"/>
<defs>
<radialGradient id="paint0_diamond_7_429" cx="0" cy="0" r="1" gradientUnits="userSpaceOnUse" gradientTransform="translate(15 8.17442) rotate(90) scale(17.8256 16.9767)">
<stop stop-color="#E7463F"/>
<stop offset="1" stop-color="#EF8439"/>
</radialGradient>
</defs>
</svg>
