<svg width="30" height="30" viewBox="0 0 30 30" fill="none" xmlns="http://www.w3.org/2000/svg">
<path d="M23.125 8C23.4375 8 23.75 8.3125 23.75 8.625V22.375C23.75 22.7266 23.4375 23 23.125 23H6.875C6.52344 23 6.25 22.7266 6.25 22.375V8.625C6.25 8.3125 6.52344 8 6.875 8H23.125ZM23.125 6.75H6.875C5.82031 6.75 5 7.60938 5 8.625V22.375C5 23.4297 5.82031 24.25 6.875 24.25H23.125C24.1406 24.25 25 23.4297 25 22.375V8.625C25 7.60938 24.1406 6.75 23.125 6.75ZM10 10.5C9.29688 10.5 8.75 11.0859 8.75 11.75C8.75 12.4531 9.29688 13 10 13C10.6641 13 11.25 12.4531 11.25 11.75C11.25 11.0859 10.6641 10.5 10 10.5ZM10 14.25C9.29688 14.25 8.75 14.8359 8.75 15.5C8.75 16.2031 9.29688 16.75 10 16.75C10.6641 16.75 11.25 16.2031 11.25 15.5C11.25 14.8359 10.6641 14.25 10 14.25ZM10 18C9.29688 18 8.75 18.5859 8.75 19.25C8.75 19.9531 9.29688 20.5 10 20.5C10.6641 20.5 11.25 19.9531 11.25 19.25C11.25 18.5859 10.6641 18 10 18ZM21.25 12.2188V11.2812C21.25 11.1641 21.1328 11.0469 21.0156 11.0469H12.7344C12.5781 11.0469 12.5 11.1641 12.5 11.2812V12.2188C12.5 12.375 12.5781 12.4531 12.7344 12.4531H21.0156C21.1328 12.4531 21.25 12.375 21.25 12.2188ZM21.25 15.9688V15.0312C21.25 14.9141 21.1328 14.7969 21.0156 14.7969H12.7344C12.5781 14.7969 12.5 14.9141 12.5 15.0312V15.9688C12.5 16.125 12.5781 16.2031 12.7344 16.2031H21.0156C21.1328 16.2031 21.25 16.125 21.25 15.9688ZM21.25 19.7188V18.7812C21.25 18.6641 21.1328 18.5469 21.0156 18.5469H12.7344C12.5781 18.5469 12.5 18.6641 12.5 18.7812V19.7188C12.5 19.875 12.5781 19.9531 12.7344 19.9531H21.0156C21.1328 19.9531 21.25 19.875 21.25 19.7188Z" fill="url(#paint0_diamond_7_415)"/>
<defs>
<radialGradient id="paint0_diamond_7_415" cx="0" cy="0" r="1" gradientUnits="userSpaceOnUse" gradientTransform="translate(15 8.17442) rotate(90) scale(17.8256 16.9767)">
<stop stop-color="#E7463F"/>
<stop offset="1" stop-color="#EF8439"/>
</radialGradient>
</defs>
</svg>
