<svg width="30" height="30" viewBox="0 0 30 30" fill="none" xmlns="http://www.w3.org/2000/svg">
<path d="M14.25 3.75C8 3.75 3 8.78906 3 15C3 17.0703 3.54688 19.0234 4.52344 20.6641C4.71875 21.0547 5.14844 21.25 5.57812 21.25H22.8828C23.3125 21.25 23.7422 21.0547 23.9375 20.6641C24.9141 19.0234 25.5 17.0703 25.5 15C25.5 8.78906 20.4609 3.75 14.25 3.75ZM22.8828 20L5.57812 20.0391C4.71875 18.5156 4.25 16.7969 4.25 15C4.25 9.49219 8.70312 5 14.25 5C19.7578 5 24.25 9.49219 24.25 15C24.25 16.7969 23.7812 18.5156 22.8828 20ZM17.2578 7.53906C16.9453 7.46094 16.5547 7.61719 16.4375 7.92969L14.4453 13.7891C14.3672 13.7891 14.2891 13.75 14.25 13.75C12.8438 13.75 11.75 14.8828 11.75 16.25C11.75 17.6562 12.8438 18.75 14.25 18.75C15.6172 18.75 16.75 17.6562 16.75 16.25C16.75 15.3906 16.2812 14.6484 15.6172 14.1797L17.6484 8.35938C17.7656 8.00781 17.5703 7.65625 17.2578 7.53906ZM14.25 17.5C13.5469 17.5 13 16.9531 13 16.25C13 15.5859 13.5469 15 14.25 15C14.9141 15 15.5 15.5859 15.5 16.25C15.5 16.9531 14.9141 17.5 14.25 17.5Z" fill="url(#paint0_diamond_7_395)"/>
<defs>
<radialGradient id="paint0_diamond_7_395" cx="0" cy="0" r="1" gradientUnits="userSpaceOnUse" gradientTransform="translate(15.5 6.09137) rotate(90) scale(22.9746 21.2209)">
<stop stop-color="#E7463F"/>
<stop offset="1" stop-color="#EF8439"/>
</radialGradient>
</defs>
</svg>
