<svg width="30" height="30" viewBox="0 0 30 30" fill="none" xmlns="http://www.w3.org/2000/svg">
<path d="M15 6.0625C19.6094 6.0625 23.4375 9.85156 23.4375 14.5C23.4375 19.1875 19.6484 22.9375 15 22.9375C10.3125 22.9375 6.5625 19.1875 6.5625 14.5C6.5625 9.85156 10.3125 6.0625 15 6.0625ZM15 4.8125C9.64844 4.8125 5.3125 9.1875 5.3125 14.5C5.3125 19.8516 9.64844 24.1875 15 24.1875C20.3125 24.1875 24.6875 19.8516 24.6875 14.5C24.6875 9.1875 20.3125 4.8125 15 4.8125ZM14.5312 9.5C14.2578 9.5 14.0625 9.73438 14.0625 10.0078L14.3359 16.5703C14.3359 16.8047 14.5703 17 14.8047 17H15.1562C15.3906 17 15.625 16.8047 15.625 16.5703L15.8984 10.0078C15.8984 9.73438 15.7031 9.5 15.4297 9.5H14.5312ZM15 17.7812C14.375 17.7812 13.9062 18.2891 13.9062 18.875C13.9062 19.5 14.375 19.9688 15 19.9688C15.5859 19.9688 16.0938 19.5 16.0938 18.875C16.0938 18.2891 15.5859 17.7812 15 17.7812Z" fill="url(#paint0_diamond_7_403)"/>
<defs>
<radialGradient id="paint0_diamond_7_403" cx="0" cy="0" r="1" gradientUnits="userSpaceOnUse" gradientTransform="translate(15 7.32558) rotate(90) scale(18.6744 16.9767)">
<stop stop-color="#E7463F"/>
<stop offset="1" stop-color="#EF8439"/>
</radialGradient>
</defs>
</svg>
