<svg width="30" height="30" viewBox="0 0 30 30" fill="none" xmlns="http://www.w3.org/2000/svg">
<path d="M24.875 5.75C24.7969 5.75 24.7188 5.78906 24.6406 5.82812L18 8.25L11.2812 5.90625C11.0078 5.82812 10.7344 5.78906 10.4609 5.75C10.2266 5.75 9.95312 5.82812 9.67969 5.90625L3.78125 7.9375C3.3125 8.13281 3 8.60156 3 9.10938V22.625C3 23.0156 3.27344 23.25 3.58594 23.25C3.66406 23.25 3.74219 23.25 3.82031 23.2109L10.5 20.75L17.2188 23.1328C17.4531 23.2109 17.7266 23.25 18 23.25C18.2734 23.25 18.5078 23.2109 18.7812 23.1328L24.6797 21.1016C25.1484 20.9062 25.5 20.4375 25.5 19.9297V6.41406C25.5 6.02344 25.1875 5.75 24.875 5.75ZM4.17188 9.14844L9.875 7.15625V19.6562L4.21094 21.7656L4.17188 9.14844ZM11.125 19.6562V7.15625L17.375 9.38281V21.8828L11.125 19.6562ZM18.625 21.8828V9.38281L24.25 7.27344L24.2891 19.8906L18.625 21.8828Z" fill="url(#paint0_diamond_7_407)"/>
<defs>
<radialGradient id="paint0_diamond_7_407" cx="0" cy="0" r="1" gradientUnits="userSpaceOnUse" gradientTransform="translate(15 7.32558) rotate(90) scale(18.6744 20.3721)">
<stop stop-color="#E7463F"/>
<stop offset="1" stop-color="#EF8439"/>
</radialGradient>
</defs>
</svg>
