<svg width="30" height="30" viewBox="0 0 30 30" fill="none" xmlns="http://www.w3.org/2000/svg">
<path d="M21.625 7H19.75V4.96875C19.75 4.73438 19.5156 4.5 19.2812 4.5H18.9688C18.6953 4.5 18.5 4.73438 18.5 4.96875V7H11V4.96875C11 4.73438 10.7656 4.5 10.5312 4.5H10.2188C9.94531 4.5 9.75 4.73438 9.75 4.96875V7H7.875C6.82031 7 6 7.85938 6 8.875V22.625C6 23.6797 6.82031 24.5 7.875 24.5H21.625C22.6406 24.5 23.5 23.6797 23.5 22.625V8.875C23.5 7.85938 22.6406 7 21.625 7ZM7.875 8.25H21.625C21.9375 8.25 22.25 8.5625 22.25 8.875V10.75H7.25V8.875C7.25 8.5625 7.52344 8.25 7.875 8.25ZM21.625 23.25H7.875C7.52344 23.25 7.25 22.9766 7.25 22.625V12H22.25V22.625C22.25 22.9766 21.9375 23.25 21.625 23.25ZM19.0078 15.6719C19.2031 15.4766 19.2031 15.1641 19.0078 15.0078L18.6953 14.6562C18.5 14.4609 18.1875 14.4609 18.0312 14.6562L13.4219 19.2266L11.4297 17.2344C11.2734 17.0781 10.9609 17.0781 10.7656 17.2344L10.4531 17.5859C10.2578 17.7422 10.2578 18.0547 10.4531 18.25L13.0703 20.8672C13.2656 21.0625 13.5781 21.0625 13.7344 20.8672L19.0078 15.6719Z" fill="url(#paint0_diamond_7_411)"/>
<defs>
<radialGradient id="paint0_diamond_7_411" cx="0" cy="0" r="1" gradientUnits="userSpaceOnUse" gradientTransform="translate(15 7.32558) rotate(90) scale(18.6744 15.2791)">
<stop stop-color="#E7463F"/>
<stop offset="1" stop-color="#EF8439"/>
</radialGradient>
</defs>
</svg>
