<svg width="30" height="30" viewBox="0 0 30 30" fill="none" xmlns="http://www.w3.org/2000/svg">
<path d="M10.6641 13.5859C10.5859 13.5469 10.5078 13.5078 10.4297 13.5078C10.3516 13.5078 10.2734 13.5469 10.2344 13.5859L7.46094 16.3594L5.9375 14.8359C5.85938 14.7969 5.78125 14.7578 5.70312 14.7578C5.625 14.7578 5.54688 14.7969 5.46875 14.8359L5.03906 15.3047C4.96094 15.3438 4.96094 15.4219 4.96094 15.5C4.96094 15.6172 4.96094 15.6953 5.03906 15.7344L7.22656 17.9219C7.26562 18 7.34375 18.0391 7.46094 18.0391C7.53906 18.0391 7.61719 18 7.65625 17.9219L11.0938 14.4844C11.1719 14.4453 11.2109 14.3672 11.2109 14.2891C11.2109 14.1719 11.1719 14.0938 11.0938 14.0547L10.6641 13.5859ZM7.42188 20.5C6.75781 20.5 6.17188 21.0859 6.17188 21.75C6.17188 22.4531 6.75781 23 7.42188 23C8.125 23 8.67188 22.4531 8.67188 21.75C8.67188 21.0859 8.125 20.5 7.42188 20.5ZM10.6641 7.33594C10.5859 7.29688 10.5078 7.25781 10.4297 7.25781C10.3516 7.25781 10.2734 7.29688 10.2344 7.33594L7.46094 10.1094L5.9375 8.58594C5.85938 8.54688 5.78125 8.50781 5.70312 8.50781C5.625 8.50781 5.54688 8.54688 5.46875 8.58594L5.03906 9.05469C4.96094 9.09375 4.96094 9.17188 4.96094 9.25C4.96094 9.36719 4.96094 9.44531 5.03906 9.48438L7.22656 11.6719C7.26562 11.75 7.34375 11.7891 7.46094 11.7891C7.53906 11.7891 7.61719 11.75 7.65625 11.6719L11.0938 8.23438C11.1719 8.19531 11.2109 8.11719 11.2109 8.03906C11.2109 7.92188 11.1719 7.84375 11.0938 7.80469L10.6641 7.33594ZM24.6484 21.125H12.7734C12.5781 21.125 12.4609 21.2812 12.4609 21.4375V22.0625C12.4609 22.2578 12.5781 22.375 12.7734 22.375H24.6484C24.8047 22.375 24.9609 22.2578 24.9609 22.0625V21.4375C24.9609 21.2812 24.8047 21.125 24.6484 21.125ZM24.6484 8.625H12.7734C12.5781 8.625 12.4609 8.78125 12.4609 8.9375V9.5625C12.4609 9.75781 12.5781 9.875 12.7734 9.875H24.6484C24.8047 9.875 24.9609 9.75781 24.9609 9.5625V8.9375C24.9609 8.78125 24.8047 8.625 24.6484 8.625ZM24.6484 14.875H12.7734C12.5781 14.875 12.4609 15.0312 12.4609 15.1875V15.8125C12.4609 16.0078 12.5781 16.125 12.7734 16.125H24.6484C24.8047 16.125 24.9609 16.0078 24.9609 15.8125V15.1875C24.9609 15.0312 24.8047 14.875 24.6484 14.875Z" fill="url(#paint0_diamond_7_398)"/>
<defs>
<radialGradient id="paint0_diamond_7_398" cx="0" cy="0" r="1" gradientUnits="userSpaceOnUse" gradientTransform="translate(15 8.17442) rotate(90) scale(17.8256 16.9767)">
<stop stop-color="#E7463F"/>
<stop offset="1" stop-color="#EF8439"/>
</radialGradient>
</defs>
</svg>
