<svg width="30" height="30" viewBox="0 0 30 30" fill="none" xmlns="http://www.w3.org/2000/svg">
<path d="M23.25 14.25C24.9688 14.25 26.375 12.8828 26.375 11.125C26.375 9.40625 24.9688 8 23.25 8C21.4922 8 20.125 9.40625 20.125 11.125C20.125 12.8828 21.4922 14.25 23.25 14.25ZM23.25 9.25C24.2656 9.25 25.125 10.1094 25.125 11.125C25.125 12.1797 24.2656 13 23.25 13C22.1953 13 21.375 12.1797 21.375 11.125C21.375 10.1094 22.1953 9.25 23.25 9.25ZM14.5 15.5C16.8828 15.5 18.875 13.5469 18.875 11.125C18.875 8.74219 16.8828 6.75 14.5 6.75C12.0781 6.75 10.125 8.74219 10.125 11.125C10.125 13.5469 12.0781 15.5 14.5 15.5ZM14.5 8C16.2188 8 17.625 9.40625 17.625 11.125C17.625 12.8828 16.2188 14.25 14.5 14.25C12.7422 14.25 11.375 12.8828 11.375 11.125C11.375 9.40625 12.7422 8 14.5 8ZM24.0312 15.5H22.4688C21.8438 15.5 21.2969 15.6953 20.8281 16.0078C21.2188 16.2812 21.5312 16.5547 21.8438 16.9062C22.0391 16.8281 22.2344 16.75 22.4688 16.75H24.0312C24.9688 16.75 25.75 17.6094 25.75 18.625C25.75 18.9766 26.0234 19.25 26.375 19.25C26.6875 19.25 27 18.9766 27 18.625C27 16.9062 25.6328 15.5 24.0312 15.5ZM5.75 14.25C7.46875 14.25 8.875 12.8828 8.875 11.125C8.875 9.40625 7.46875 8 5.75 8C3.99219 8 2.625 9.40625 2.625 11.125C2.625 12.8828 3.99219 14.25 5.75 14.25ZM5.75 9.25C6.76562 9.25 7.625 10.1094 7.625 11.125C7.625 12.1797 6.76562 13 5.75 13C4.69531 13 3.875 12.1797 3.875 11.125C3.875 10.1094 4.69531 9.25 5.75 9.25ZM17.625 16.2812C16.2969 16.2812 15.9844 16.75 14.5 16.75C12.9766 16.75 12.6641 16.2812 11.3359 16.2812C9.92969 16.2812 8.5625 16.9453 7.74219 18.1172C7.27344 18.8594 7 19.7188 7 20.6562V22.375C7 23.4297 7.82031 24.25 8.875 24.25H20.125C21.1406 24.25 22 23.4297 22 22.375V20.6562C22 19.7188 21.6875 18.8594 21.2188 18.1172C20.3984 16.9453 19.0312 16.2812 17.625 16.2812ZM20.75 22.375C20.75 22.7266 20.4375 23 20.125 23H8.875C8.52344 23 8.25 22.7266 8.25 22.375V20.6562C8.25 19.9922 8.40625 19.3672 8.79688 18.8203C9.30469 18.0391 10.2812 17.5312 11.3359 17.5312C12.4297 17.5312 12.8203 18 14.5 18C16.1797 18 16.5312 17.5312 17.625 17.5312C18.6797 17.5312 19.6562 18.0391 20.1641 18.8203C20.5547 19.3672 20.7109 19.9922 20.7109 20.6562V22.375H20.75ZM8.13281 16.0078C7.66406 15.6953 7.11719 15.5 6.53125 15.5H4.96875C3.32812 15.5 2 16.9062 2 18.625C2 18.9766 2.27344 19.25 2.625 19.25C2.9375 19.25 3.25 18.9766 3.25 18.625C3.25 17.6094 3.99219 16.75 4.96875 16.75H6.53125C6.72656 16.75 6.92188 16.8281 7.11719 16.9062C7.42969 16.5547 7.74219 16.2812 8.13281 16.0078Z" fill="url(#paint0_diamond_7_420)"/>
<defs>
<radialGradient id="paint0_diamond_7_420" cx="0" cy="0" r="1" gradientUnits="userSpaceOnUse" gradientTransform="translate(15 8.17442) rotate(90) scale(17.8256 22.0698)">
<stop stop-color="#E7463F"/>
<stop offset="1" stop-color="#EF8439"/>
</radialGradient>
</defs>
</svg>
