<svg width="30" height="30" viewBox="0 0 30 30" fill="none" xmlns="http://www.w3.org/2000/svg">
<path d="M23.8281 16.2188L22.5781 15.4766C22.6172 15.1641 22.6172 14.8516 22.6172 14.5C22.6172 14.1875 22.6172 13.875 22.5781 13.5625L23.8281 12.8203C24.2188 12.625 24.375 12.1562 24.2578 11.7656C23.8281 10.2812 23.0469 8.95312 22.0312 7.85938C21.7188 7.54688 21.25 7.46875 20.8594 7.70312L19.6094 8.44531C19.1016 8.05469 18.5547 7.74219 17.9297 7.46875V6.02344C17.9297 5.55469 17.6562 5.20312 17.2266 5.08594C15.7422 4.73438 14.2188 4.73438 12.7344 5.08594C12.3047 5.20312 12.0312 5.55469 12.0312 6.02344V7.46875C11.4062 7.74219 10.8594 8.05469 10.3516 8.44531L9.10156 7.70312C8.71094 7.46875 8.24219 7.54688 7.92969 7.85938C6.91406 8.95312 6.13281 10.2812 5.70312 11.7656C5.58594 12.1562 5.74219 12.625 6.13281 12.8203L7.38281 13.5625C7.34375 13.875 7.34375 14.1875 7.34375 14.5391C7.34375 14.8516 7.34375 15.1641 7.38281 15.4766L6.13281 16.2188C5.74219 16.4141 5.58594 16.8828 5.70312 17.2734C6.13281 18.7578 6.91406 20.0859 7.92969 21.1797C8.24219 21.4922 8.71094 21.5703 9.10156 21.3359L10.3516 20.5938C10.8594 20.9844 11.4062 21.2969 12.0312 21.5703V23.0156C12.0312 23.4844 12.3047 23.8359 12.7344 23.9531C14.2188 24.3047 15.7422 24.3047 17.2266 23.9531C17.6562 23.8359 17.9297 23.4844 17.9297 23.0156V21.5703C18.5547 21.2969 19.1016 20.9844 19.6094 20.5938L20.8594 21.3359C21.25 21.5703 21.7188 21.4922 22.0312 21.1797C23.0469 20.0859 23.8281 18.7578 24.2578 17.2734C24.375 16.8828 24.2188 16.4141 23.8281 16.2188ZM21.2891 20.125L19.4531 19.0703C18.3984 20.0078 18.0469 20.2031 16.6797 20.7109V22.7812C16.1328 22.8984 15.5469 22.9766 14.9609 22.9766C14.375 22.9766 13.8281 22.8984 13.2812 22.7812V20.7109C11.9531 20.2422 11.5625 20.0078 10.5078 19.0703L8.67188 20.125C7.92969 19.2656 7.34375 18.25 6.95312 17.1562L8.78906 16.1406C8.51562 14.7344 8.51562 14.3047 8.78906 12.8984L6.95312 11.8828C7.34375 10.7891 7.92969 9.77344 8.67188 8.91406L10.5078 9.96875C11.5625 9.03125 11.9531 8.79688 13.2812 8.32812V6.25781C13.8281 6.14062 14.4141 6.0625 15 6.0625C15.5859 6.0625 16.1328 6.14062 16.6797 6.25781V8.32812C18.0078 8.79688 18.3984 9.03125 19.4531 9.96875L21.2891 8.91406C22.0312 9.77344 22.6172 10.7891 23.0078 11.8828L21.1719 12.8984C21.4453 14.3047 21.4453 14.7344 21.1719 16.1406L23.0078 17.1562C22.6172 18.25 22.0312 19.2656 21.2891 20.125ZM15 10.75C12.9297 10.75 11.25 12.4688 11.25 14.5C11.25 16.5703 12.9297 18.25 15 18.25C17.0312 18.25 18.75 16.5703 18.75 14.5C18.75 12.4688 17.0312 10.75 15 10.75ZM15 17C13.5938 17 12.5 15.9062 12.5 14.5C12.5 13.1328 13.5938 12 15 12C16.3672 12 17.5 13.1328 17.5 14.5C17.5 15.9062 16.3672 17 15 17Z" fill="url(#paint0_diamond_7_424)"/>
<defs>
<radialGradient id="paint0_diamond_7_424" cx="0" cy="0" r="1" gradientUnits="userSpaceOnUse" gradientTransform="translate(15 7.32558) rotate(90) scale(18.6744 16.9767)">
<stop stop-color="#E7463F"/>
<stop offset="1" stop-color="#EF8439"/>
</radialGradient>
</defs>
</svg>
